HIERARCHY
ROOT Hips
{
  OFFSET 0 0 0
  CHANNELS 6 Xposition Yposition Zposition Zrotation Xrotation Yrotation
  JOINT LeftHip
  {
    OFFSET 3.43 7.10543e-015 1.42109e-014
    CHANNELS 3 Zrotation Xrotation Yrotation
    JOINT LeftKnee
    {
      OFFSET -2.63059e-013 -18.47 -1.60089e-013
      CHANNELS 3 Zrotation Xrotation Yrotation
      JOINT LeftAnkle
      {
        OFFSET -5.71295e-013 -17.95 -2.29603e-012
        CHANNELS 3 Zrotation Xrotation Yrotation
        End Site
        {
          OFFSET 0 -3.12 0
        }
      }
    }
  }
  JOINT RightHip
  {
    OFFSET -3.43 -7.10543e-015 4.26326e-014
    CHANNELS 3 Zrotation Xrotation Yrotation
    JOINT RightKnee
    {
      OFFSET -2.56889e-013 -18.47 -3.42374e-013
      CHANNELS 3 Zrotation Xrotation Yrotation
      JOINT RightAnkle
      {
        OFFSET -1.14182e-012 -17.95 -1.48304e-012
        CHANNELS 3 Zrotation Xrotation Yrotation
        End Site
        {
          OFFSET 0 -3.12 0
        }
      }
    }
  }
  JOINT Chest
  {
    OFFSET -1.66489e-012 4.57 -4.7603e-012
    CHANNELS 3 Zrotation Xrotation Yrotation
    JOINT Chest2
    {
      OFFSET 1.42109e-014 6.57 -1.20743e-013
      CHANNELS 3 Zrotation Xrotation Yrotation
      JOINT LeftCollar
      {
        OFFSET 1.06 4.19 1.76
        CHANNELS 3 Zrotation Xrotation Yrotation
        JOINT LeftShoulder
        {
          OFFSET 5.81 -2.13163e-014 5.29234e-013
          CHANNELS 3 Zrotation Xrotation Yrotation
          JOINT LeftElbow
          {
            OFFSET 9.75654e-014 -12.08 -6.4833e-013
            CHANNELS 3 Zrotation Xrotation Yrotation
            JOINT LeftWrist
            {
              OFFSET -8.05939e-012 -9.82 -1.32772e-011
              CHANNELS 3 Zrotation Xrotation Yrotation
              End Site
              {
                OFFSET 0 -7.37 0
              }
            }
          }
        }
      }
      JOINT RightCollar
      {
        OFFSET -1.06 4.19 1.76
        CHANNELS 3 Zrotation Xrotation Yrotation
        JOINT RightShoulder
        {
          OFFSET -6.06 7.41254e-013 7.65649e-013
          CHANNELS 3 Zrotation Xrotation Yrotation
          JOINT RightElbow
          {
            OFFSET 4.85801e-014 -11.08 -7.92776e-013
            CHANNELS 3 Zrotation Xrotation Yrotation
            JOINT RightWrist
            {
              OFFSET 7.39589e-012 -9.82 -1.17398e-011
              CHANNELS 3 Zrotation Xrotation Yrotation
              End Site
              {
                OFFSET 0 -7.14001 0
              }
            }
          }
        }
      }
      JOINT Neck
      {
        OFFSET -7.10543e-015 4.05 -5.25333e-013
        CHANNELS 3 Zrotation Xrotation Yrotation
        JOINT Head
        {
          OFFSET 2.19778e-013 5.19 1.14394e-013
          CHANNELS 3 Zrotation Xrotation Yrotation
          End Site
          {
            OFFSET 0 4.14001 0
          }
        }
      }
    }
  }
}
MOTION
Frames:	7
Frame Time:	0.0333333
55.3869 38.0436 51.9056 -7.82754 1.55217 -141.667 -9.81157 -14.517 -8.91595 0.628738 33.16 5.46919 -0.337147 -12.1565 -0.0359013 -6.63429 -10.6349 -2.35435 -8.39572 69.4489 11.7018 4.35586 9.15884 -0.349057 -1.95335 2.67641 1.15397 -1.51545 3.55569 1.52472 1.30342 0.0633569 -1.96315 19.1714 -0.924372 3.05026 -9.62528 -12.161 -29.7269 -0.949089 13.8313 0.115118 -2.50233 0.339137 2.4558 -20.2899 -4.14728 -0.0551544 15.5974 -16.0796 28.2197 -5.68657 11.5971 0.577944 1.03114 -3.13232 1.1069 -1.35773 4.47028 1.68553 
54.0994 38.3059 50.6598 -7.91512 2.48679 -140.134 -9.63104 -10.0039 -8.48037 0.7852 31.5218 5.24462 0.550455 -14.097 0.0680609 -5.53067 -14.9569 -2.39854 -5.93775 68.8874 7.05833 0.873512 6.17321 -0.0471038 -1.65505 3.15945 0.294708 -1.46309 4.23136 0.57311 1.59564 0.0525567 -1.76841 19.6875 -3.07556 2.2805 -9.936 -14.1766 -29.4844 -0.326278 13.8817 0.0397202 -2.65228 0.324727 1.90967 -19.937 -3.12844 0.0738207 15.699 -15.7008 28.361 -4.70125 11.3086 0.465718 1.09782 -3.08019 1.36266 -1.44808 4.42101 2.01006 
52.8645 38.549 49.4384 -7.99021 3.43166 -138.562 -9.16421 -5.27998 -7.95276 0.94573 29.073 4.84038 1.34267 -15.4832 0.182537 -4.44663 -18.338 -2.10638 -2.92806 64.7991 1.58516 -2.36329 2.35707 0.048625 -1.29577 3.66265 -0.516465 -1.37864 4.91669 -0.353199 1.89625 0.0424725 -1.56762 20.1845 -5.21163 1.60597 -10.2562 -16.3497 -29.137 0.181555 13.9254 -0.0221722 -2.82469 0.311454 1.36209 -19.5975 -2.31642 0.17026 15.7572 -15.3612 28.4459 -3.78489 11.0094 0.364888 1.16576 -3.05239 1.57403 -1.52092 4.38963 2.28273 
51.6885 38.7015 48.2365 -8.04117 4.41514 -136.984 -8.28938 -0.456884 -7.303 1.02843 26.6919 4.0891 1.98456 -17.0805 0.298049 -3.4163 -20.6561 -1.44424 -0.760277 58.3082 -3.71621 -3.51647 -3.79002 -0.116383 -0.852315 4.18692 -1.27546 -1.26496 5.61051 -1.22457 2.19679 0.0331569 -1.35507 20.6623 -7.30084 1.03482 -10.5878 -18.5005 -28.7095 0.581517 13.939 -0.0710878 -3.02186 0.299702 0.817198 -19.279 -1.74468 0.231534 15.7541 -15.0415 28.4523 -2.96263 10.707 0.277688 1.2279 -3.05404 1.74368 -1.57726 4.38465 2.50483 
50.575 38.6474 47.0468 -7.92824 5.58165 -135.351 -6.85645 3.82669 -6.60507 1.11132 25.9577 2.76492 2.43082 -19.8023 0.424358 -2.258 -21.2914 -0.446134 0.515143 47.8517 -7.19718 -3.51688 -4.26622 -0.131034 -0.140674 4.74119 -2.09669 -1.12901 6.31822 -2.01416 2.4879 0.0246914 -1.1261 21.1658 -9.32187 0.572488 -10.93 -20.4498 -28.2474 0.904722 13.9042 -0.11032 -3.24339 0.289887 0.280074 -19.0263 -1.41757 0.250621 15.6806 -14.7262 28.3723 -2.25086 10.4082 0.205033 1.27853 -3.0956 1.87666 -1.61886 4.41036 2.6801 
49.489 38.4768 45.8435 -8.0232 6.59789 -133.728 -4.99304 7.61034 -5.33967 0.586137 25.6604 0.420856 3.32791 -22.523 0.662834 -1.50332 -20.7263 0.656551 0.832647 36.8074 -9.80202 -2.02279 -5.40774 -0.0955394 0.361972 5.28396 -2.84992 -0.962769 7.01406 -2.70232 2.75986 0.0171623 -0.877789 21.5823 -11.1768 0.168536 -11.2781 -22.0467 -27.8063 1.19582 13.8134 -0.144857 -3.48687 0.282368 -0.24423 -18.7915 -1.30112 0.244463 15.5333 -14.4104 28.1993 -1.65842 10.1172 0.146812 1.30829 -3.17834 1.97864 -1.64856 4.46634 2.81375 
48.3857 38.228 44.5893 -8.41191 7.36657 -132.175 -3.31323 11.3964 -4.45424 -0.122862 25.1435 -1.92502 4.36365 -24.9565 0.966107 -1.38535 -18.8263 1.52606 0.844925 25.4094 -11.2296 -0.673565 -4.82221 -0.0283619 0.525595 5.77773 -3.47795 -0.765803 7.67006 -3.2727 3.00404 0.0105996 -0.608475 21.8435 -12.7546 -0.220598 -11.6299 -23.1833 -27.4495 1.49924 13.6712 -0.179728 -3.74847 0.277398 -0.750317 -18.5726 -1.34389 0.221955 15.3201 -14.0982 27.9419 -1.18846 9.83735 0.102281 1.31407 -3.30083 2.05655 -1.66956 4.54815 2.91207 
